<svg width="600" height="400" viewBox="0 0 600 400" fill="none" xmlns="http://www.w3.org/2000/svg">
<path d="M400 99.2556C400 86.2212 397.413 73.3144 392.388 61.2721C387.362 49.2299 379.997 38.288 370.711 29.0713C361.425 19.8546 350.401 12.5434 338.268 7.55538C326.136 2.56732 313.132 0 300 0C286.868 0 273.864 2.56732 261.732 7.55538C249.599 12.5434 238.575 19.8546 229.289 29.0713C220.003 38.288 212.638 49.2299 207.612 61.2721C202.587 73.3144 200 86.2212 200 99.2556C200 112.96 211.193 124.069 225 124.069C238.807 124.069 250 112.96 250 99.2556C250 92.7384 251.293 86.285 253.806 80.2639C256.319 74.2427 260.002 68.7718 264.645 64.1634C269.288 59.5551 274.8 55.8995 280.866 53.4055C286.932 50.9115 293.434 49.6278 300 49.6278C306.566 49.6278 313.068 50.9115 319.134 53.4055C325.2 55.8995 330.712 59.5551 335.355 64.1634C339.998 68.7718 343.681 74.2427 346.194 80.2638C347.217 82.7154 348.038 85.2387 348.652 87.8087L196.662 201.489H99.8139L99.7256 201.489L99.6267 201.49C86.6214 201.538 73.7492 204.103 61.7317 209.044C49.5991 214.032 38.5752 221.343 29.2893 230.56C20.0035 239.777 12.6375 250.719 7.61205 262.761C2.58658 274.803 0 287.71 0 300.744C0 313.779 2.58658 326.686 7.61205 338.728C12.6375 350.77 20.0035 361.712 29.2893 370.929C38.5752 380.145 49.5991 387.457 61.7317 392.445C69.4634 395.623 77.5488 397.819 85.7958 398.994C88.0212 399.649 90.3765 400 92.8139 400H198.186C203.369 400 208.18 398.411 212.16 395.694C212.791 395.304 213.41 394.883 214.015 394.431L405.626 251.117H500C506.566 251.117 513.068 252.4 519.134 254.894C525.2 257.388 530.712 261.044 535.355 265.652C539.998 270.261 543.681 275.732 546.194 281.753C548.707 287.774 550 294.227 550 300.744C550 307.262 548.707 313.715 546.194 319.736C543.681 325.757 539.998 331.228 535.355 335.837C530.712 340.445 525.2 344.1 519.134 346.595C513.068 349.089 506.566 350.372 500 350.372V350.53C499.076 350.426 498.138 350.372 497.186 350.372H391.814C378.11 350.372 367 361.482 367 375.186C367 388.89 378.11 400 391.814 400H497.186C498.138 400 499.076 399.946 500 399.842V400C513.132 400 526.136 397.433 538.268 392.445C550.401 387.457 561.425 380.145 570.711 370.929C579.997 361.712 587.362 350.77 592.388 338.728C597.413 326.686 600 313.779 600 300.744C600 287.71 597.413 274.803 592.388 262.761C587.362 250.719 579.997 239.777 570.711 230.56C561.425 221.343 550.401 214.032 538.268 209.044C527.484 204.61 516.011 202.089 504.371 201.584C503.651 201.521 502.922 201.489 502.186 201.489H396.814C390.103 201.489 384.015 204.153 379.548 208.481L189.84 350.372L100 350.372C93.4339 350.372 86.9321 349.089 80.8658 346.595C74.7996 344.1 69.2876 340.445 64.6447 335.837C60.0017 331.228 56.3188 325.757 53.806 319.736C51.2933 313.715 50 307.262 50 300.744C50 294.227 51.2933 287.774 53.806 281.753C56.3188 275.732 60.0017 270.261 64.6447 265.652C69.2876 261.044 74.7995 257.388 80.8658 254.894C86.9321 252.4 93.4339 251.117 100 251.117H205.186C211.335 251.117 216.962 248.88 221.297 245.176C221.589 244.976 221.878 244.769 222.164 244.555L388.509 120.138C395.422 115.724 400 108.02 400 99.2556Z" fill="white"/>
</svg>
